<svg xmlns="http://www.w3.org/2000/svg" width="363.1920166015625" height="364.601806640625" viewBox="-89.83879089355469 -76.42678833007812 363.1920166015625 364.601806640625"><title>Neo4j Graph Visualization</title><desc>Created using Neo4j (http://www.neo4j.com/)</desc><g class="layer relationships"><g class="relationship" transform="translate(135.12839438273897 259.1750186236764) rotate(330.2239365477693)"><path class="outline" fill="#A5ABB6" stroke="none" d="M 21.40063509461097,12.933012701892217 L 21.90063509461097,12.06698729810778 A 57.57274218984343 57.57274218984343 0 0 0 24.14349366044026,13.296301618476768 L 23.68245061264576,14.183679389260078 A 58.57274218984343 58.57274218984343 0 0 1 21.40063509461097,12.933012701892217 Z M 74.37038037843428,15.778640817828965 L 73.96603915582017,14.864032608979436 A 57.57274218984343 57.57274218984343 0 0 0 76.28174809502511,13.778159525481872 L 74.94805748387991,11.09091756508025 L 82.77426110448641,11.114088426210007 L 78.0600022432187,17.361148806017365 L 76.7263116320735,14.673906845615743 A 58.57274218984343 58.57274218984343 0 0 1 74.37038037843428,15.778640817828965"/><text text-anchor="middle" pointer-events="none" font-size="8px" fill="#000000" x="48.86057603934187" y="23.251543799099224" font-family="sans-serif">PRODUCED</text></g><g class="relationship" transform="translate(135.12839438273897 259.1750186236764) rotate(330.2239365477693)"><path class="outline" fill="#A5ABB6" stroke="none" d="M 25 0.5 L 25.583972053916632 0.5 L 25.583972053916632 -0.5 L 25 -0.5 Z M 72.58397205391663 0.5 L 73.16794410783326 0.5 L 73.16794410783326 3.5 L 80.16794410783326 0 L 73.16794410783326 -3.5 L 73.16794410783326 -0.5 L 72.58397205391663 -0.5 Z"/><text text-anchor="middle" pointer-events="none" font-size="8px" fill="#000000" x="49.08397205391663" y="3" font-family="sans-serif">DIRECTED</text></g><g class="relationship" transform="translate(135.12839438273897 259.1750186236764) rotate(330.2239365477693)"><path class="outline" fill="#A5ABB6" stroke="none" d="M 21.40063509461097,-12.933012701892217 L 21.90063509461097,-12.06698729810778 A 57.57274218984343 57.57274218984343 0 0 1 31.87841323382059,-16.621291805887303 L 31.551720562248832,-17.566422430902342 A 58.57274218984343 58.57274218984343 0 0 0 21.40063509461097,-12.933012701892217 Z M 66.304003964309,-18.65994808557194 L 66.03737827476627,-17.6961479290686 A 57.57274218984343 57.57274218984343 0 0 1 76.28174809502511,-13.778159525481872 L 74.94805748387991,-11.09091756508025 L 82.77426110448641,-11.114088426210007 L 78.0600022432187,-17.361148806017365 L 76.7263116320735,-14.673906845615743 A 58.57274218984343 58.57274218984343 0 0 0 66.304003964309,-18.65994808557194"/><text text-anchor="middle" pointer-events="none" font-size="8px" fill="#000000" x="48.86057603934188" y="-17.251543799099224" font-family="sans-serif">WROTE</text></g><g class="relationship" transform="translate(244.35320905497912 17.140423331669766) rotate(203.5803409076915)"><path class="outline" fill="#A5ABB6" stroke="none" d="M 24.018736134675446,6.953439040707552 L 24.277555179777966,5.987513214418485 A 99.64388934424213 99.64388934424213 0 0 0 25.316334606341115,6.259862395739717 L 25.0679404797499,7.228521447147898 A 100.64388934424213 100.64388934424213 0 0 1 24.018736134675446,6.953439040707552 Z M 71.86402461675578,7.994160799633519 L 71.64745177474204,7.017894338004268 A 99.64388934424213 99.64388934424213 0 0 0 72.69458473710823,6.779673153507018 L 72.01333995383463,3.8580459450386777 L 79.62525568741329,5.677039860613339 L 73.60291111480636,10.675176098131471 L 72.92166633153276,7.753548889663131 A 100.64388934424213 100.64388934424213 0 0 1 71.86402461675578,7.994160799633519"/><text text-anchor="middle" pointer-events="none" font-size="8px" fill="#000000" x="48.429038105912895" y="12.869395423398231" transform="rotate(180 48.429038105912895 9.869395423398231)" font-family="sans-serif">DIRECTED</text></g><g class="relationship" transform="translate(244.35320905497912 17.140423331669766) rotate(203.5803409076915)"><path class="outline" fill="#A5ABB6" stroke="none" d="M 24.018736134675446,-6.953439040707552 L 24.277555179777966,-5.987513214418485 A 99.64388934424213 99.64388934424213 0 0 1 31.140222220863514,-7.568711998186728 L 30.95027510645588,-8.550506321723091 A 100.64388934424213 100.64388934424213 0 0 0 24.018736134675446,-6.953439040707552 Z M 65.94159151273813,-9.123005694907619 L 65.78386410230107,-8.135523004428023 A 99.64388934424213 99.64388934424213 0 0 1 72.69458473710823,-6.779673153507018 L 72.01333995383463,-3.8580459450386777 L 79.62525568741329,-5.677039860613339 L 73.60291111480636,-10.675176098131471 L 72.92166633153276,-7.753548889663131 A 100.64388934424213 100.64388934424213 0 0 0 65.94159151273813,-9.123005694907619"/><text text-anchor="middle" pointer-events="none" font-size="8px" fill="#000000" x="48.42903810591286" y="-6.869395423398217" transform="rotate(180 48.42903810591286 -9.869395423398217)" font-family="sans-serif">WROTE</text></g><g class="relationship" transform="translate(47.769286232150705 -47.42678580776703) rotate(372.77926163262504)"><path class="outline" fill="#A5ABB6" stroke="none" d="M 24.018736134675446,6.953439040707552 L 24.277555179777966,5.987513214418485 A 99.43177972680338 99.43177972680338 0 0 0 25.26464584815656,6.246581537616393 L 25.01575411875824,7.2151128520492875 A 100.43177972680338 100.43177972680338 0 0 1 24.018736134675446,6.953439040707552 Z M 71.81048786265116,7.981462897242224 L 71.59344406973588,7.005301029539453 A 99.43177972680338 99.43177972680338 0 0 0 72.58848857037958,6.7786938243954085 L 71.90733526594626,3.857045287035112 L 79.51919404162582,5.67627753694437 L 73.49669297629067,10.674225207542472 L 72.81553967185735,7.752576670182175 A 100.43177972680338 100.43177972680338 0 0 1 71.81048786265116,7.981462897242224"/><text text-anchor="middle" pointer-events="none" font-size="8px" fill="#000000" x="48.3760457346051" y="12.8621707419465" font-family="sans-serif">DIRECTED</text></g><g class="relationship" transform="translate(47.769286232150705 -47.42678580776703) rotate(372.77926163262504)"><path class="outline" fill="#A5ABB6" stroke="none" d="M 24.018736134675446,-6.953439040707552 L 24.277555179777966,-5.987513214418485 A 99.43177972680338 99.43177972680338 0 0 1 31.0878779682511,-7.5580378390206135 L 30.897551338824787,-8.539758661928644 A 100.43177972680338 100.43177972680338 0 0 0 24.018736134675446,-6.953439040707552 Z M 65.88846940286759,-9.112799461487029 L 65.73039119311625,-8.125372866948567 A 99.43177972680338 99.43177972680338 0 0 1 72.58848857037958,-6.7786938243954085 L 71.90733526594626,-3.857045287035112 L 79.51919404162582,-5.67627753694437 L 73.49669297629067,-10.674225207542472 L 72.81553967185735,-7.752576670182175 A 100.43177972680338 100.43177972680338 0 0 0 65.88846940286759,-9.112799461487029"/><text text-anchor="middle" pointer-events="none" font-size="8px" fill="#000000" x="48.37604573460505" y="-6.8621707419465" font-family="sans-serif">WROTE</text></g><g class="relationship" transform="translate(-60.8387924494855 94.68896756184505) rotate(432.3280576543872)"><path class="outline" fill="#A5ABB6" stroke="none" d="M 21.40063509461097,12.933012701892217 L 21.90063509461097,12.06698729810778 A 57.173834351184325 57.173834351184325 0 0 0 31.69079656419721,16.548635895529422 L 31.36203156322581,17.493047656434733 A 58.173834351184325 58.173834351184325 0 0 1 21.40063509461097,12.933012701892217 Z M 66.10890164147911,18.590200234820003 L 65.84037285107871,17.6269285759791 A 57.173834351184325 57.173834351184325 0 0 0 75.8937712573108,13.771851892317336 L 74.5606674375957,11.08431878445411 L 82.38686581227752,11.109198497625945 L 77.67124301693096,17.355229369468308 L 76.33813919721585,14.66769626160508 A 58.173834351184325 58.173834351184325 0 0 1 66.10890164147911,18.590200234820003"/><text text-anchor="middle" pointer-events="none" font-size="8px" fill="#000000" x="48.667374643822285" y="23.19809924635878" font-family="sans-serif">WROTE</text></g><g class="relationship" transform="translate(-60.8387924494855 94.68896756184505) rotate(432.3280576543872)"><path class="outline" fill="#A5ABB6" stroke="none" d="M 25 0.5 L 25.391487522235543 0.5 L 25.391487522235543 -0.5 L 25 -0.5 Z M 72.39148752223554 0.5 L 72.78297504447109 0.5 L 72.78297504447109 3.5 L 79.78297504447109 0 L 72.78297504447109 -3.5 L 72.78297504447109 -0.5 L 72.39148752223554 -0.5 Z"/><text text-anchor="middle" pointer-events="none" font-size="8px" fill="#000000" x="48.89148752223554" y="3" font-family="sans-serif">DIRECTED</text></g><g class="relationship" transform="translate(-60.8387924494855 94.68896756184505) rotate(432.3280576543872)"><path class="outline" fill="#A5ABB6" stroke="none" d="M 21.40063509461097,-12.933012701892217 L 21.90063509461097,-12.06698729810778 A 57.173834351184325 57.173834351184325 0 0 1 23.96544134542039,-13.20301866678335 L 23.501555877080566,-14.08891384809045 A 58.173834351184325 58.173834351184325 0 0 0 21.40063509461097,-12.933012701892217 Z M 74.16847975853074,-15.688751360079031 L 73.76140795808227,-14.775355197792564 A 57.173834351184325 57.173834351184325 0 0 1 75.8937712573108,-13.771851892317336 L 74.5606674375957,-11.08431878445411 L 82.38686581227752,-11.109198497625945 L 77.67124301693096,-17.355229369468308 L 76.33813919721585,-14.66769626160508 A 58.173834351184325 58.173834351184325 0 0 0 74.16847975853074,-15.688751360079031"/><text text-anchor="middle" pointer-events="none" font-size="8px" fill="#000000" x="48.66737464382229" y="-17.19809924635878" font-family="sans-serif">PRODUCED</text></g></g><g class="layer nodes"><g class="node" transform="translate(135.12839438273897,259.1750186236764)"><circle class="outline" cx="0" cy="0" r="25" fill="#F79767" stroke="#f36924" stroke-width="2px"/><text text-anchor="middle" pointer-events="none" font-family="sans-serif" dy="1.5625" font-size="25" fill="#FFFFFF"/><text text-anchor="middle" pointer-events="none" x="0" y="5" font-size="10px" fill="#FFFFFF" font-family="sans-serif"> Cameron</text></g><g class="node" transform="translate(226.4113302526592,206.94741972389573)"><circle class="outline" cx="0" cy="0" r="25" fill="#57C7E3" stroke="#23b3d7" stroke-width="2px"/><text text-anchor="middle" pointer-events="none" font-family="sans-serif" dy="1.5625" font-size="25" fill="#2A2C34"/><text text-anchor="middle" pointer-events="none" font-family="sans-serif" dy="1.5625" font-size="25" fill="#2A2C34"/><text text-anchor="middle" pointer-events="none" x="0" y="0" font-size="10px" fill="#2A2C34" font-family="sans-serif"> Jerry</text><text text-anchor="middle" pointer-events="none" x="0" y="10" font-size="10px" fill="#2A2C34" font-family="sans-serif"> Maguire</text></g><g class="node" transform="translate(244.35320905497912,17.140423331669766)"><circle class="outline" cx="0" cy="0" r="25" fill="#F79767" stroke="#f36924" stroke-width="2px"/><text text-anchor="middle" pointer-events="none" font-family="sans-serif" dy="1.5625" font-size="25" fill="#FFFFFF"/><text text-anchor="middle" pointer-events="none" font-family="sans-serif" dy="1.5625" font-size="25" fill="#FFFFFF"/><text text-anchor="middle" pointer-events="none" x="0" y="0" font-size="10px" fill="#FFFFFF" font-family="sans-serif"> Lilly</text><text text-anchor="middle" pointer-events="none" x="0" y="10" font-size="10px" fill="#FFFFFF" font-family="sans-serif"> Wacho…</text></g><g class="node" transform="translate(149.06273007375515,-24.45203274146664)"><circle class="outline" cx="0" cy="0" r="25" fill="#57C7E3" stroke="#23b3d7" stroke-width="2px"/><text text-anchor="middle" pointer-events="none" font-family="sans-serif" dy="1.5625" font-size="25" fill="#2A2C34"/><text text-anchor="middle" pointer-events="none" font-family="sans-serif" dy="1.5625" font-size="25" fill="#2A2C34"/><text text-anchor="middle" pointer-events="none" x="0" y="0" font-size="10px" fill="#2A2C34" font-family="sans-serif"> Speed</text><text text-anchor="middle" pointer-events="none" x="0" y="10" font-size="10px" fill="#2A2C34" font-family="sans-serif"> Racer</text></g><g class="node" transform="translate(47.769286232150705,-47.42678580776703)"><circle class="outline" cx="0" cy="0" r="25" fill="#F79767" stroke="#f36924" stroke-width="2px"/><text text-anchor="middle" pointer-events="none" font-family="sans-serif" dy="1.5625" font-size="25" fill="#FFFFFF"/><text text-anchor="middle" pointer-events="none" font-family="sans-serif" dy="1.5625" font-size="25" fill="#FFFFFF"/><text text-anchor="middle" pointer-events="none" x="0" y="0" font-size="10px" fill="#FFFFFF" font-family="sans-serif"> Lana</text><text text-anchor="middle" pointer-events="none" x="0" y="10" font-size="10px" fill="#FFFFFF" font-family="sans-serif"> Wacho…</text></g><g class="node" transform="translate(-60.8387924494855,94.68896756184505)"><circle class="outline" cx="0" cy="0" r="25" fill="#F79767" stroke="#f36924" stroke-width="2px"/><text text-anchor="middle" pointer-events="none" font-family="sans-serif" dy="1.5625" font-size="25" fill="#FFFFFF"/><text text-anchor="middle" pointer-events="none" font-family="sans-serif" dy="1.5625" font-size="25" fill="#FFFFFF"/><text text-anchor="middle" pointer-events="none" x="0" y="0" font-size="10px" fill="#FFFFFF" font-family="sans-serif"> Nancy</text><text text-anchor="middle" pointer-events="none" x="0" y="10" font-size="10px" fill="#FFFFFF" font-family="sans-serif"> Meyers</text></g><g class="node" transform="translate(-29.030190655141357,194.52726037106277)"><circle class="outline" cx="0" cy="0" r="25" fill="#57C7E3" stroke="#23b3d7" stroke-width="2px"/><text text-anchor="middle" pointer-events="none" font-family="sans-serif" dy="1.5625" font-size="25" fill="#2A2C34"/><text text-anchor="middle" pointer-events="none" x="0" y="5" font-size="10px" fill="#2A2C34" font-family="sans-serif"> Someth…</text></g></g></svg>