<svg xmlns="http://www.w3.org/2000/svg" width="284.05499267578125" height="284.0977783203125" viewBox="-36.21268844604492 -48.038787841796875 284.05499267578125 284.0977783203125"><title>Neo4j Graph Visualization</title><desc>Created using Neo4j (http://www.neo4j.com/)</desc><g class="layer relationships"><g class="relationship" transform="translate(144.69877418911142 207.05901316649215) rotate(252.157305998492)"><path class="outline" fill="#A5ABB6" stroke="none" d="M 25 0.5 L 39.309972829528235 0.5 L 39.309972829528235 -0.5 L 25 -0.5 Z M 74.30997282952823 0.5 L 88.61994565905647 0.5 L 88.61994565905647 3.5 L 95.61994565905647 0 L 88.61994565905647 -3.5 L 88.61994565905647 -0.5 L 74.30997282952823 -0.5 Z"/><text text-anchor="middle" pointer-events="none" font-size="8px" fill="#000000" x="56.809972829528235" y="3" transform="rotate(180 56.809972829528235 0)" font-family="sans-serif">WROTE</text></g><g class="relationship" transform="translate(218.84231196341963 48.092271803947746) rotate(518.3286874915634)"><path class="outline" fill="#A5ABB6" stroke="none" d="M 25 0.5 L 38.77615078116015 0.5 L 38.77615078116015 -0.5 L 25 -0.5 Z M 73.77615078116014 0.5 L 87.5523015623203 0.5 L 87.5523015623203 3.5 L 94.5523015623203 0 L 87.5523015623203 -3.5 L 87.5523015623203 -0.5 L 73.77615078116014 -0.5 Z"/><text text-anchor="middle" pointer-events="none" font-size="8px" fill="#000000" x="56.27615078116015" y="3" transform="rotate(180 56.27615078116015 0)" font-family="sans-serif">WROTE</text></g><g class="relationship" transform="translate(216.10023108429144 144.32345938101327) rotate(205.67105694029988)"><path class="outline" fill="#A5ABB6" stroke="none" d="M 25 0.5 L 34.113424880462 0.5 L 34.113424880462 -0.5 L 25 -0.5 Z M 79.11342488046199 0.5 L 88.226849760924 0.5 L 88.226849760924 3.5 L 95.226849760924 0 L 88.226849760924 -3.5 L 88.226849760924 -0.5 L 79.11342488046199 -0.5 Z"/><text text-anchor="middle" pointer-events="none" font-size="8px" fill="#000000" x="56.613424880462" y="3" transform="rotate(180 56.613424880462 0)" font-family="sans-serif">ACTED_IN</text></g><g class="relationship" transform="translate(151.4461506244356 -19.0387888338372) rotate(471.44280415488004)"><path class="outline" fill="#A5ABB6" stroke="none" d="M 25 0.5 L 38.777369273326265 0.5 L 38.777369273326265 -0.5 L 25 -0.5 Z M 73.77736927332626 0.5 L 87.55473854665253 0.5 L 87.55473854665253 3.5 L 94.55473854665253 0 L 87.55473854665253 -3.5 L 87.55473854665253 -0.5 L 73.77736927332626 -0.5 Z"/><text text-anchor="middle" pointer-events="none" font-size="8px" fill="#000000" x="56.277369273326265" y="3" transform="rotate(180 56.277369273326265 0)" font-family="sans-serif">WROTE</text></g><g class="relationship" transform="translate(55.22805953542486 -15.871804531551117) rotate(424.0933221304224)"><path class="outline" fill="#A5ABB6" stroke="none" d="M 25 0.5 L 34.09544468034208 0.5 L 34.09544468034208 -0.5 L 25 -0.5 Z M 79.09544468034207 0.5 L 88.19088936068415 0.5 L 88.19088936068415 3.5 L 95.19088936068415 0 L 88.19088936068415 -3.5 L 88.19088936068415 -0.5 L 79.09544468034207 -0.5 Z"/><text text-anchor="middle" pointer-events="none" font-size="8px" fill="#000000" x="56.59544468034208" y="3" font-family="sans-serif">ACTED_IN</text></g><g class="relationship" transform="translate(-7.2126872732673855 55.774932785368726) rotate(377.6002585907817)"><path class="outline" fill="#A5ABB6" stroke="none" d="M 25 0.5 L 34.29911519761953 0.5 L 34.29911519761953 -0.5 L 25 -0.5 Z M 79.29911519761953 0.5 L 88.59823039523906 0.5 L 88.59823039523906 3.5 L 95.59823039523906 0 L 88.59823039523906 -3.5 L 88.59823039523906 -0.5 L 79.29911519761953 -0.5 Z"/><text text-anchor="middle" pointer-events="none" font-size="8px" fill="#000000" x="56.79911519761953" y="3" font-family="sans-serif">ACTED_IN</text></g><g class="relationship" transform="translate(-1.4996601219781138 142.77190880638844) rotate(335.17612216801945)"><path class="outline" fill="#A5ABB6" stroke="none" d="M 25 0.5 L 33.18047805798758 0.5 L 33.18047805798758 -0.5 L 25 -0.5 Z M 80.18047805798759 0.5 L 88.36095611597516 0.5 L 88.36095611597516 3.5 L 95.36095611597516 0 L 88.36095611597516 -3.5 L 88.36095611597516 -0.5 L 80.18047805798759 -0.5 Z"/><text text-anchor="middle" pointer-events="none" font-size="8px" fill="#000000" x="56.68047805798758" y="3" font-family="sans-serif">DIRECTED</text></g><g class="relationship" transform="translate(57.67369612878512 201.7066642102839) rotate(294.5779884998242)"><path class="outline" fill="#A5ABB6" stroke="none" d="M 25 0.5 L 39.18607019017213 0.5 L 39.18607019017213 -0.5 L 25 -0.5 Z M 74.18607019017213 0.5 L 88.37214038034426 0.5 L 88.37214038034426 3.5 L 95.37214038034426 0 L 88.37214038034426 -3.5 L 88.37214038034426 -0.5 L 74.18607019017213 -0.5 Z"/><text text-anchor="middle" pointer-events="none" font-size="8px" fill="#000000" x="56.68607019017213" y="3" font-family="sans-serif">WROTE</text></g></g><g class="layer nodes"><g class="node" transform="translate(107.74025591336574,92.24072534762982)"><circle class="outline" cx="0" cy="0" r="25" fill="#57C7E3" stroke="#23b3d7" stroke-width="2px"/><text text-anchor="middle" pointer-events="none" font-family="sans-serif" dy="1.5625" font-size="25" fill="#2A2C34"/><text text-anchor="middle" pointer-events="none" font-family="sans-serif" dy="1.5625" font-size="25" fill="#2A2C34"/><text text-anchor="middle" pointer-events="none" x="0" y="0" font-size="10px" fill="#2A2C34" font-family="sans-serif"> Captain</text><text text-anchor="middle" pointer-events="none" x="0" y="10" font-size="10px" fill="#2A2C34" font-family="sans-serif"> America:</text></g><g class="node" transform="translate(144.69877418911142,207.05901316649215)"><circle class="outline" cx="0" cy="0" r="25" fill="#F79767" stroke="#f36924" stroke-width="2px"/><text text-anchor="middle" pointer-events="none" font-family="sans-serif" dy="1.5625" font-size="25" fill="#FFFFFF"/><text text-anchor="middle" pointer-events="none" font-family="sans-serif" dy="1.5625" font-size="25" fill="#FFFFFF"/><text text-anchor="middle" pointer-events="none" x="0" y="0" font-size="10px" fill="#FFFFFF" font-family="sans-serif"> Jack</text><text text-anchor="middle" pointer-events="none" x="0" y="10" font-size="10px" fill="#FFFFFF" font-family="sans-serif"> Kirby</text></g><g class="node" transform="translate(218.84231196341963,48.092271803947746)"><circle class="outline" cx="0" cy="0" r="25" fill="#F79767" stroke="#f36924" stroke-width="2px"/><text text-anchor="middle" pointer-events="none" font-family="sans-serif" dy="1.5625" font-size="25" fill="#FFFFFF"/><text text-anchor="middle" pointer-events="none" font-family="sans-serif" dy="1.5625" font-size="25" fill="#FFFFFF"/><text text-anchor="middle" pointer-events="none" x="0" y="0" font-size="10px" fill="#FFFFFF" font-family="sans-serif"> Stephen</text><text text-anchor="middle" pointer-events="none" x="0" y="10" font-size="10px" fill="#FFFFFF" font-family="sans-serif"> McFeely</text></g><g class="node" transform="translate(216.10023108429144,144.32345938101327)"><circle class="outline" cx="0" cy="0" r="25" fill="#F79767" stroke="#f36924" stroke-width="2px"/><text text-anchor="middle" pointer-events="none" font-family="sans-serif" dy="1.5625" font-size="25" fill="#FFFFFF"/><text text-anchor="middle" pointer-events="none" font-family="sans-serif" dy="1.5625" font-size="25" fill="#FFFFFF"/><text text-anchor="middle" pointer-events="none" x="0" y="0" font-size="10px" fill="#FFFFFF" font-family="sans-serif"> Chris</text><text text-anchor="middle" pointer-events="none" x="0" y="10" font-size="10px" fill="#FFFFFF" font-family="sans-serif"> Evans</text></g><g class="node" transform="translate(151.4461506244356,-19.0387888338372)"><circle class="outline" cx="0" cy="0" r="25" fill="#F79767" stroke="#f36924" stroke-width="2px"/><text text-anchor="middle" pointer-events="none" font-family="sans-serif" dy="1.5625" font-size="25" fill="#FFFFFF"/><text text-anchor="middle" pointer-events="none" font-family="sans-serif" dy="1.5625" font-size="25" fill="#FFFFFF"/><text text-anchor="middle" pointer-events="none" x="0" y="0" font-size="10px" fill="#FFFFFF" font-family="sans-serif"> Joe</text><text text-anchor="middle" pointer-events="none" x="0" y="10" font-size="10px" fill="#FFFFFF" font-family="sans-serif"> Simon</text></g><g class="node" transform="translate(55.22805953542486,-15.871804531551117)"><circle class="outline" cx="0" cy="0" r="25" fill="#F79767" stroke="#f36924" stroke-width="2px"/><text text-anchor="middle" pointer-events="none" font-family="sans-serif" dy="1.5625" font-size="25" fill="#FFFFFF"/><text text-anchor="middle" pointer-events="none" font-family="sans-serif" dy="1.5625" font-size="25" fill="#FFFFFF"/><text text-anchor="middle" pointer-events="none" x="0" y="0" font-size="10px" fill="#FFFFFF" font-family="sans-serif"> Hugo</text><text text-anchor="middle" pointer-events="none" x="0" y="10" font-size="10px" fill="#FFFFFF" font-family="sans-serif"> Weaving</text></g><g class="node" transform="translate(-7.2126872732673855,55.774932785368726)"><circle class="outline" cx="0" cy="0" r="25" fill="#F79767" stroke="#f36924" stroke-width="2px"/><text text-anchor="middle" pointer-events="none" font-family="sans-serif" dy="1.5625" font-size="25" fill="#FFFFFF"/><text text-anchor="middle" pointer-events="none" font-family="sans-serif" dy="1.5625" font-size="25" fill="#FFFFFF"/><text text-anchor="middle" pointer-events="none" x="0" y="0" font-size="10px" fill="#FFFFFF" font-family="sans-serif"> Samuel</text><text text-anchor="middle" pointer-events="none" x="0" y="10" font-size="10px" fill="#FFFFFF" font-family="sans-serif"> L. Jack…</text></g><g class="node" transform="translate(-1.4996601219781138,142.77190880638844)"><circle class="outline" cx="0" cy="0" r="25" fill="#F79767" stroke="#f36924" stroke-width="2px"/><text text-anchor="middle" pointer-events="none" font-family="sans-serif" dy="1.5625" font-size="25" fill="#FFFFFF"/><text text-anchor="middle" pointer-events="none" font-family="sans-serif" dy="1.5625" font-size="25" fill="#FFFFFF"/><text text-anchor="middle" pointer-events="none" x="0" y="0" font-size="10px" fill="#FFFFFF" font-family="sans-serif"> Joe</text><text text-anchor="middle" pointer-events="none" x="0" y="10" font-size="10px" fill="#FFFFFF" font-family="sans-serif"> Johnston</text></g><g class="node" transform="translate(57.67369612878512,201.7066642102839)"><circle class="outline" cx="0" cy="0" r="25" fill="#F79767" stroke="#f36924" stroke-width="2px"/><text text-anchor="middle" pointer-events="none" font-family="sans-serif" dy="1.5625" font-size="25" fill="#FFFFFF"/><text text-anchor="middle" pointer-events="none" x="0" y="5" font-size="10px" fill="#FFFFFF" font-family="sans-serif"> Christop…</text></g></g></svg>