<svg xmlns="http://www.w3.org/2000/svg" width="511.7628173828125" height="536.5711059570312" viewBox="-182.10060119628906 -160.7454071044922 511.7628173828125 536.5711059570312"><title>Neo4j Graph Visualization</title><desc>Created using Neo4j (http://www.neo4j.com/)</desc><g class="layer relationships"><g class="relationship" transform="translate(229.37406301134786 276.6818692725785) rotate(248.34101691900105)"><path class="outline" fill="#A5ABB6" stroke="none" d="M 25 0.5 L 35.08018084949697 0.5 L 35.08018084949697 -0.5 L 25 -0.5 Z M 80.08018084949697 0.5 L 90.16036169899394 0.5 L 90.16036169899394 3.5 L 97.16036169899394 0 L 90.16036169899394 -3.5 L 90.16036169899394 -0.5 L 80.08018084949697 -0.5 Z"/><text text-anchor="middle" pointer-events="none" font-size="8px" fill="#000000" x="57.58018084949697" y="3" transform="rotate(180 57.58018084949697 0)" font-family="sans-serif">ACTED_IN</text></g><g class="relationship" transform="translate(54.59116268530535 113.64174157141957) rotate(380.8917689762934)"><path class="outline" fill="#A5ABB6" stroke="none" d="M 25 0.5 L 43.411279561630366 0.5 L 43.411279561630366 -0.5 L 25 -0.5 Z M 88.41127956163037 0.5 L 106.82255912326073 0.5 L 106.82255912326073 3.5 L 113.82255912326073 0 L 106.82255912326073 -3.5 L 106.82255912326073 -0.5 L 88.41127956163037 -0.5 Z"/><text text-anchor="middle" pointer-events="none" font-size="8px" fill="#000000" x="65.91127956163037" y="3" font-family="sans-serif">ACTED_IN</text></g><g class="relationship" transform="translate(54.59116268530535 113.64174157141957) rotate(291.76358450521906)"><path class="outline" fill="#A5ABB6" stroke="none" d="M 25 0.5 L 40.068319528202395 0.5 L 40.068319528202395 -0.5 L 25 -0.5 Z M 85.0683195282024 0.5 L 100.13663905640479 0.5 L 100.13663905640479 3.5 L 107.13663905640479 0 L 100.13663905640479 -3.5 L 100.13663905640479 -0.5 L 85.0683195282024 -0.5 Z"/><text text-anchor="middle" pointer-events="none" font-size="8px" fill="#000000" x="62.568319528202395" y="3" font-family="sans-serif">ACTED_IN</text></g><g class="relationship" transform="translate(54.59116268530535 113.64174157141957) rotate(522.3279529042875)"><path class="outline" fill="#A5ABB6" stroke="none" d="M 25 0.5 L 31.08723599205323 0.5 L 31.08723599205323 -0.5 L 25 -0.5 Z M 76.08723599205322 0.5 L 82.17447198410646 0.5 L 82.17447198410646 3.5 L 89.17447198410646 0 L 82.17447198410646 -3.5 L 82.17447198410646 -0.5 L 76.08723599205322 -0.5 Z"/><text text-anchor="middle" pointer-events="none" font-size="8px" fill="#000000" x="53.58723599205323" y="3" transform="rotate(180 53.58723599205323 0)" font-family="sans-serif">ACTED_IN</text></g><g class="relationship" transform="translate(54.59116268530535 113.64174157141957) rotate(191.76797323867902)"><path class="outline" fill="#A5ABB6" stroke="none" d="M 25 0.5 L 34.3047886002246 0.5 L 34.3047886002246 -0.5 L 25 -0.5 Z M 79.3047886002246 0.5 L 88.6095772004492 0.5 L 88.6095772004492 3.5 L 95.6095772004492 0 L 88.6095772004492 -3.5 L 88.6095772004492 -0.5 L 79.3047886002246 -0.5 Z"/><text text-anchor="middle" pointer-events="none" font-size="8px" fill="#000000" x="56.8047886002246" y="3" transform="rotate(180 56.8047886002246 0)" font-family="sans-serif">ACTED_IN</text></g><g class="relationship" transform="translate(54.59116268530535 113.64174157141957) rotate(490.025131824986)"><path class="outline" fill="#A5ABB6" stroke="none" d="M 25 0.5 L 48.928162804307334 0.5 L 48.928162804307334 -0.5 L 25 -0.5 Z M 93.92816280430733 0.5 L 117.85632560861467 0.5 L 117.85632560861467 3.5 L 124.85632560861467 0 L 117.85632560861467 -3.5 L 117.85632560861467 -0.5 L 93.92816280430733 -0.5 Z"/><text text-anchor="middle" pointer-events="none" font-size="8px" fill="#000000" x="71.42816280430733" y="3" transform="rotate(180 71.42816280430733 0)" font-family="sans-serif">ACTED_IN</text></g><g class="relationship" transform="translate(300.6622072869139 205.94572199700565) rotate(200.19200573703836)"><path class="outline" fill="#A5ABB6" stroke="none" d="M 25 0.5 L 35.99795845491599 0.5 L 35.99795845491599 -0.5 L 25 -0.5 Z M 80.99795845491599 0.5 L 91.99591690983198 0.5 L 91.99591690983198 3.5 L 98.99591690983198 0 L 91.99591690983198 -3.5 L 91.99591690983198 -0.5 L 80.99795845491599 -0.5 Z"/><text text-anchor="middle" pointer-events="none" font-size="8px" fill="#000000" x="58.49795845491599" y="3" transform="rotate(180 58.49795845491599 0)" font-family="sans-serif">ACTED_IN</text></g><g class="relationship" transform="translate(297.0972170407095 112.79561003588688) rotate(515.9472889840949)"><path class="outline" fill="#A5ABB6" stroke="none" d="M 25 0.5 L 35.768442088569884 0.5 L 35.768442088569884 -0.5 L 25 -0.5 Z M 80.76844208856988 0.5 L 91.53688417713977 0.5 L 91.53688417713977 3.5 L 98.53688417713977 0 L 91.53688417713977 -3.5 L 91.53688417713977 -0.5 L 80.76844208856988 -0.5 Z"/><text text-anchor="middle" pointer-events="none" font-size="8px" fill="#000000" x="58.268442088569884" y="3" transform="rotate(180 58.268442088569884 0)" font-family="sans-serif">ACTED_IN</text></g><g class="relationship" transform="translate(223.82464789951126 -28.843918104816538) rotate(530.6640774797643)"><path class="outline" fill="#A5ABB6" stroke="none" d="M 25 0.5 L 34.92711508312915 0.5 L 34.92711508312915 -0.5 L 25 -0.5 Z M 79.92711508312915 0.5 L 89.8542301662583 0.5 L 89.8542301662583 3.5 L 96.8542301662583 0 L 89.8542301662583 -3.5 L 89.8542301662583 -0.5 L 79.92711508312915 -0.5 Z"/><text text-anchor="middle" pointer-events="none" font-size="8px" fill="#000000" x="57.42711508312915" y="3" transform="rotate(180 57.42711508312915 0)" font-family="sans-serif">ACTED_IN</text></g><g class="relationship" transform="translate(181.45958454394082 -105.89899859407633) rotate(488.8099750086713)"><path class="outline" fill="#A5ABB6" stroke="none" d="M 25 0.5 L 36.12717768567271 0.5 L 36.12717768567271 -0.5 L 25 -0.5 Z M 81.1271776856727 0.5 L 92.25435537134543 0.5 L 92.25435537134543 3.5 L 99.25435537134543 0 L 92.25435537134543 -3.5 L 92.25435537134543 -0.5 L 81.1271776856727 -0.5 Z"/><text text-anchor="middle" pointer-events="none" font-size="8px" fill="#000000" x="58.62717768567271" y="3" transform="rotate(180 58.62717768567271 0)" font-family="sans-serif">ACTED_IN</text></g><g class="relationship" transform="translate(12.899861828573114 -89.51297823356047) rotate(401.57278117917167)"><path class="outline" fill="#A5ABB6" stroke="none" d="M 25 0.5 L 34.60886706634497 0.5 L 34.60886706634497 -0.5 L 25 -0.5 Z M 79.60886706634497 0.5 L 89.21773413268994 0.5 L 89.21773413268994 3.5 L 96.21773413268994 0 L 89.21773413268994 -3.5 L 89.21773413268994 -0.5 L 79.60886706634497 -0.5 Z"/><text text-anchor="middle" pointer-events="none" font-size="8px" fill="#000000" x="57.10886706634497" y="3" font-family="sans-serif">ACTED_IN</text></g><g class="relationship" transform="translate(95.0851160181221 -131.74540429043054) rotate(446.03648540135896)"><path class="outline" fill="#A5ABB6" stroke="none" d="M 25 0.5 L 35.4815402565711 0.5 L 35.4815402565711 -0.5 L 25 -0.5 Z M 80.4815402565711 0.5 L 90.9630805131422 0.5 L 90.9630805131422 3.5 L 97.9630805131422 0 L 90.9630805131422 -3.5 L 90.9630805131422 -0.5 L 80.4815402565711 -0.5 Z"/><text text-anchor="middle" pointer-events="none" font-size="8px" fill="#000000" x="57.9815402565711" y="3" font-family="sans-serif">ACTED_IN</text></g><g class="relationship" transform="translate(35.25560788725322 179.07923020221517) rotate(198.98699926301924)"><path class="outline" fill="#A5ABB6" stroke="none" d="M 25 0.5 L 26.298913827652875 0.5 L 26.298913827652875 -0.5 L 25 -0.5 Z M 61.298913827652875 0.5 L 62.59782765530575 0.5 L 62.59782765530575 3.5 L 69.59782765530575 0 L 62.59782765530575 -3.5 L 62.59782765530575 -0.5 L 61.298913827652875 -0.5 Z"/><text text-anchor="middle" pointer-events="none" font-size="8px" fill="#000000" x="43.798913827652875" y="3" transform="rotate(180 43.798913827652875 0)" font-family="sans-serif">ACTE…</text></g><g class="relationship" transform="translate(35.25560788725322 179.07923020221517) rotate(222.36028842179672)"><path class="outline" fill="#A5ABB6" stroke="none" d="M 25 0.5 L 40.81282034405558 0.5 L 40.81282034405558 -0.5 L 25 -0.5 Z M 85.81282034405558 0.5 L 101.62564068811116 0.5 L 101.62564068811116 3.5 L 108.62564068811116 0 L 101.62564068811116 -3.5 L 101.62564068811116 -0.5 L 85.81282034405558 -0.5 Z"/><text text-anchor="middle" pointer-events="none" font-size="8px" fill="#000000" x="63.31282034405558" y="3" transform="rotate(180 63.31282034405558 0)" font-family="sans-serif">ACTED_IN</text></g><g class="relationship" transform="translate(35.25560788725322 179.07923020221517) rotate(507.37501503684234)"><path class="outline" fill="#A5ABB6" stroke="none" d="M 25 0.5 L 27.23675462301589 0.5 L 27.23675462301589 -0.5 L 25 -0.5 Z M 57.23675462301589 0.5 L 59.47350924603178 0.5 L 59.47350924603178 3.5 L 66.47350924603178 0 L 59.47350924603178 -3.5 L 59.47350924603178 -0.5 L 57.23675462301589 -0.5 Z"/><text text-anchor="middle" pointer-events="none" font-size="8px" fill="#000000" x="42.23675462301589" y="3" transform="rotate(180 42.23675462301589 0)" font-family="sans-serif">ACT…</text></g><g class="relationship" transform="translate(-141.03316049818318 202.64797107170003) rotate(327.9600542122702)"><path class="outline" fill="#A5ABB6" stroke="none" d="M 25 0.5 L 25.22094374553437 0.5 L 25.22094374553437 -0.5 L 25 -0.5 Z M 70.22094374553437 0.5 L 70.44188749106874 0.5 L 70.44188749106874 3.5 L 77.44188749106874 0 L 70.44188749106874 -3.5 L 70.44188749106874 -0.5 L 70.22094374553437 -0.5 Z"/><text text-anchor="middle" pointer-events="none" font-size="8px" fill="#000000" x="47.72094374553437" y="3" font-family="sans-serif">ACTED_IN</text></g><g class="relationship" transform="translate(-141.03316049818318 202.64797107170003) rotate(304.3186146210147)"><path class="outline" fill="#A5ABB6" stroke="none" d="M 25 0.5 L 42.77486911030607 0.5 L 42.77486911030607 -0.5 L 25 -0.5 Z M 87.77486911030607 0.5 L 105.54973822061214 0.5 L 105.54973822061214 3.5 L 112.54973822061214 0 L 105.54973822061214 -3.5 L 105.54973822061214 -0.5 L 87.77486911030607 -0.5 Z"/><text text-anchor="middle" pointer-events="none" font-size="8px" fill="#000000" x="65.27486911030607" y="3" font-family="sans-serif">ACTED_IN</text></g><g class="relationship" transform="translate(-141.03316049818318 202.64797107170003) rotate(374.543705380428)"><path class="outline" fill="#A5ABB6" stroke="none" d="M 25 0.5 L 25.266871519907603 0.5 L 25.266871519907603 -0.5 L 25 -0.5 Z M 70.2668715199076 0.5 L 70.5337430398152 0.5 L 70.5337430398152 3.5 L 77.5337430398152 0 L 70.5337430398152 -3.5 L 70.5337430398152 -0.5 L 70.2668715199076 -0.5 Z"/><text text-anchor="middle" pointer-events="none" font-size="8px" fill="#000000" x="47.7668715199076" y="3" font-family="sans-serif">ACTED_IN</text></g><g class="relationship" transform="translate(-153.10060239393397 143.01512601670626) rotate(363.05947644896287)"><path class="outline" fill="#A5ABB6" stroke="none" d="M 25 0.5 L 25.52319749267314 0.5 L 25.52319749267314 -0.5 L 25 -0.5 Z M 66.52319749267315 0.5 L 67.04639498534628 0.5 L 67.04639498534628 3.5 L 74.04639498534628 0 L 67.04639498534628 -3.5 L 67.04639498534628 -0.5 L 66.52319749267315 -0.5 Z"/><text text-anchor="middle" pointer-events="none" font-size="8px" fill="#000000" x="46.02319749267314" y="3" font-family="sans-serif">ACTED…</text></g><g class="relationship" transform="translate(-153.10060239393397 143.01512601670626) rotate(328.9417332513078)"><path class="outline" fill="#A5ABB6" stroke="none" d="M 25 0.5 L 26.307207014522596 0.5 L 26.307207014522596 -0.5 L 25 -0.5 Z M 71.30720701452259 0.5 L 72.6144140290452 0.5 L 72.6144140290452 3.5 L 79.6144140290452 0 L 72.6144140290452 -3.5 L 72.6144140290452 -0.5 L 71.30720701452259 -0.5 Z"/><text text-anchor="middle" pointer-events="none" font-size="8px" fill="#000000" x="48.8072070145226" y="3" font-family="sans-serif">ACTED_IN</text></g><g class="relationship" transform="translate(-153.10060239393397 143.01512601670626) rotate(397.48881182003345)"><path class="outline" fill="#A5ABB6" stroke="none" d="M 25 0.5 L 44.14463244760489 0.5 L 44.14463244760489 -0.5 L 25 -0.5 Z M 89.14463244760489 0.5 L 108.28926489520978 0.5 L 108.28926489520978 3.5 L 115.28926489520978 0 L 108.28926489520978 -3.5 L 108.28926489520978 -0.5 L 89.14463244760489 -0.5 Z"/><text text-anchor="middle" pointer-events="none" font-size="8px" fill="#000000" x="66.64463244760489" y="3" font-family="sans-serif">ACTED_IN</text></g><g class="relationship" transform="translate(-17.09104526726831 346.82569543505696) rotate(258.22193255696527)"><path class="outline" fill="#A5ABB6" stroke="none" d="M 25 0.5 L 34.48835166504296 0.5 L 34.48835166504296 -0.5 L 25 -0.5 Z M 79.48835166504296 0.5 L 88.97670333008593 0.5 L 88.97670333008593 3.5 L 95.97670333008593 0 L 88.97670333008593 -3.5 L 88.97670333008593 -0.5 L 79.48835166504296 -0.5 Z"/><text text-anchor="middle" pointer-events="none" font-size="8px" fill="#000000" x="56.98835166504296" y="3" transform="rotate(180 56.98835166504296 0)" font-family="sans-serif">ACTED_IN</text></g></g><g class="layer nodes"><g class="node" transform="translate(229.37406301134786,276.6818692725785)"><circle class="outline" cx="0" cy="0" r="25" fill="#F79767" stroke="#f36924" stroke-width="2px"/><text text-anchor="middle" pointer-events="none" font-family="sans-serif" dy="1.5625" font-size="25" fill="#FFFFFF"/><text text-anchor="middle" pointer-events="none" font-family="sans-serif" dy="1.5625" font-size="25" fill="#FFFFFF"/><text text-anchor="middle" pointer-events="none" x="0" y="0" font-size="10px" fill="#FFFFFF" font-family="sans-serif"> Tom</text><text text-anchor="middle" pointer-events="none" x="0" y="10" font-size="10px" fill="#FFFFFF" font-family="sans-serif"> Hanks</text></g><g class="node" transform="translate(54.59116268530535,113.64174157141957)"><circle class="outline" cx="0" cy="0" r="25" fill="#F79767" stroke="#f36924" stroke-width="2px"/><text text-anchor="middle" pointer-events="none" font-family="sans-serif" dy="1.5625" font-size="25" fill="#FFFFFF"/><text text-anchor="middle" pointer-events="none" font-family="sans-serif" dy="1.5625" font-size="25" fill="#FFFFFF"/><text text-anchor="middle" pointer-events="none" x="0" y="0" font-size="10px" fill="#FFFFFF" font-family="sans-serif"> Hugo</text><text text-anchor="middle" pointer-events="none" x="0" y="10" font-size="10px" fill="#FFFFFF" font-family="sans-serif"> Weaving</text></g><g class="node" transform="translate(184.2869316553343,163.1463921893575)"><circle class="outline" cx="0" cy="0" r="25" fill="#57C7E3" stroke="#23b3d7" stroke-width="2px"/><text text-anchor="middle" pointer-events="none" font-family="sans-serif" dy="1.5625" font-size="25" fill="#2A2C34"/><text text-anchor="middle" pointer-events="none" font-family="sans-serif" dy="1.5625" font-size="25" fill="#2A2C34"/><text text-anchor="middle" pointer-events="none" x="0" y="0" font-size="10px" fill="#2A2C34" font-family="sans-serif"> Cloud</text><text text-anchor="middle" pointer-events="none" x="0" y="10" font-size="10px" fill="#2A2C34" font-family="sans-serif"> Atlas</text></g><g class="node" transform="translate(300.6622072869139,205.94572199700565)"><circle class="outline" cx="0" cy="0" r="25" fill="#F79767" stroke="#f36924" stroke-width="2px"/><text text-anchor="middle" pointer-events="none" font-family="sans-serif" dy="1.5625" font-size="25" fill="#FFFFFF"/><text text-anchor="middle" pointer-events="none" font-family="sans-serif" dy="1.5625" font-size="25" fill="#FFFFFF"/><text text-anchor="middle" pointer-events="none" x="0" y="0" font-size="10px" fill="#FFFFFF" font-family="sans-serif"> Jim</text><text text-anchor="middle" pointer-events="none" x="0" y="10" font-size="10px" fill="#FFFFFF" font-family="sans-serif"> Broadb…</text></g><g class="node" transform="translate(297.0972170407095,112.79561003588688)"><circle class="outline" cx="0" cy="0" r="25" fill="#F79767" stroke="#f36924" stroke-width="2px"/><text text-anchor="middle" pointer-events="none" font-family="sans-serif" dy="1.5625" font-size="25" fill="#FFFFFF"/><text text-anchor="middle" pointer-events="none" font-family="sans-serif" dy="1.5625" font-size="25" fill="#FFFFFF"/><text text-anchor="middle" pointer-events="none" x="0" y="0" font-size="10px" fill="#FFFFFF" font-family="sans-serif"> Halle</text><text text-anchor="middle" pointer-events="none" x="0" y="10" font-size="10px" fill="#FFFFFF" font-family="sans-serif"> Berry</text></g><g class="node" transform="translate(223.82464789951126,-28.843918104816538)"><circle class="outline" cx="0" cy="0" r="25" fill="#F79767" stroke="#f36924" stroke-width="2px"/><text text-anchor="middle" pointer-events="none" font-family="sans-serif" dy="1.5625" font-size="25" fill="#FFFFFF"/><text text-anchor="middle" pointer-events="none" x="0" y="5" font-size="10px" fill="#FFFFFF" font-family="sans-serif"> John Hurt</text></g><g class="node" transform="translate(103.58447421355652,-9.076418480865811)"><circle class="outline" cx="0" cy="0" r="25" fill="#57C7E3" stroke="#23b3d7" stroke-width="2px"/><text text-anchor="middle" pointer-events="none" font-family="sans-serif" dy="1.5625" font-size="25" fill="#2A2C34"/><text text-anchor="middle" pointer-events="none" font-family="sans-serif" dy="1.5625" font-size="25" fill="#2A2C34"/><text text-anchor="middle" pointer-events="none" x="0" y="0" font-size="10px" fill="#2A2C34" font-family="sans-serif"> V for</text><text text-anchor="middle" pointer-events="none" x="0" y="10" font-size="10px" fill="#2A2C34" font-family="sans-serif"> Vendetta</text></g><g class="node" transform="translate(181.45958454394082,-105.89899859407633)"><circle class="outline" cx="0" cy="0" r="25" fill="#F79767" stroke="#f36924" stroke-width="2px"/><text text-anchor="middle" pointer-events="none" font-family="sans-serif" dy="1.5625" font-size="25" fill="#FFFFFF"/><text text-anchor="middle" pointer-events="none" font-family="sans-serif" dy="1.5625" font-size="25" fill="#FFFFFF"/><text text-anchor="middle" pointer-events="none" x="0" y="0" font-size="10px" fill="#FFFFFF" font-family="sans-serif"> Stephen</text><text text-anchor="middle" pointer-events="none" x="0" y="10" font-size="10px" fill="#FFFFFF" font-family="sans-serif"> Rea</text></g><g class="node" transform="translate(12.899861828573114,-89.51297823356047)"><circle class="outline" cx="0" cy="0" r="25" fill="#F79767" stroke="#f36924" stroke-width="2px"/><text text-anchor="middle" pointer-events="none" font-family="sans-serif" dy="1.5625" font-size="25" fill="#FFFFFF"/><text text-anchor="middle" pointer-events="none" font-family="sans-serif" dy="1.5625" font-size="25" fill="#FFFFFF"/><text text-anchor="middle" pointer-events="none" x="0" y="0" font-size="10px" fill="#FFFFFF" font-family="sans-serif"> Natalie</text><text text-anchor="middle" pointer-events="none" x="0" y="10" font-size="10px" fill="#FFFFFF" font-family="sans-serif"> Portman</text></g><g class="node" transform="translate(95.0851160181221,-131.74540429043054)"><circle class="outline" cx="0" cy="0" r="25" fill="#F79767" stroke="#f36924" stroke-width="2px"/><text text-anchor="middle" pointer-events="none" font-family="sans-serif" dy="1.5625" font-size="25" fill="#FFFFFF"/><text text-anchor="middle" pointer-events="none" font-family="sans-serif" dy="1.5625" font-size="25" fill="#FFFFFF"/><text text-anchor="middle" pointer-events="none" x="0" y="0" font-size="10px" fill="#FFFFFF" font-family="sans-serif"> Ben</text><text text-anchor="middle" pointer-events="none" x="0" y="10" font-size="10px" fill="#FFFFFF" font-family="sans-serif"> Miles</text></g><g class="node" transform="translate(35.25560788725322,179.07923020221517)"><circle class="outline" cx="0" cy="0" r="25" fill="#F79767" stroke="#f36924" stroke-width="2px"/><text text-anchor="middle" pointer-events="none" font-family="sans-serif" dy="1.5625" font-size="25" fill="#FFFFFF"/><text text-anchor="middle" pointer-events="none" x="0" y="5" font-size="10px" fill="#FFFFFF" font-family="sans-serif"> Laurence</text></g><g class="node" transform="translate(-54.19538131935591,148.30148618056822)"><circle class="outline" cx="0" cy="0" r="25" fill="#57C7E3" stroke="#23b3d7" stroke-width="2px"/><text text-anchor="middle" pointer-events="none" font-family="sans-serif" dy="1.5625" font-size="25" fill="#2A2C34"/><text text-anchor="middle" pointer-events="none" font-family="sans-serif" dy="1.5625" font-size="25" fill="#2A2C34"/><text text-anchor="middle" pointer-events="none" font-family="sans-serif" dy="1.5625" font-size="25" fill="#2A2C34"/><text text-anchor="middle" pointer-events="none" x="0" y="-5" font-size="10px" fill="#2A2C34" font-family="sans-serif"> The</text><text text-anchor="middle" pointer-events="none" x="0" y="5" font-size="10px" fill="#2A2C34" font-family="sans-serif"> Matrix</text><text text-anchor="middle" pointer-events="none" x="0" y="15" font-size="10px" fill="#2A2C34" font-family="sans-serif"> Revol…</text></g><g class="node" transform="translate(-141.03316049818318,202.64797107170003)"><circle class="outline" cx="0" cy="0" r="25" fill="#F79767" stroke="#f36924" stroke-width="2px"/><text text-anchor="middle" pointer-events="none" font-family="sans-serif" dy="1.5625" font-size="25" fill="#FFFFFF"/><text text-anchor="middle" pointer-events="none" x="0" y="5" font-size="10px" fill="#FFFFFF" font-family="sans-serif"> Carrie-A…</text></g><g class="node" transform="translate(-153.10060239393397,143.01512601670626)"><circle class="outline" cx="0" cy="0" r="25" fill="#F79767" stroke="#f36924" stroke-width="2px"/><text text-anchor="middle" pointer-events="none" font-family="sans-serif" dy="1.5625" font-size="25" fill="#FFFFFF"/><text text-anchor="middle" pointer-events="none" font-family="sans-serif" dy="1.5625" font-size="25" fill="#FFFFFF"/><text text-anchor="middle" pointer-events="none" x="0" y="0" font-size="10px" fill="#FFFFFF" font-family="sans-serif"> Keanu</text><text text-anchor="middle" pointer-events="none" x="0" y="10" font-size="10px" fill="#FFFFFF" font-family="sans-serif"> Reeves</text></g><g class="node" transform="translate(-63.483387361812284,89.04355579193931)"><circle class="outline" cx="0" cy="0" r="25" fill="#57C7E3" stroke="#23b3d7" stroke-width="2px"/><text text-anchor="middle" pointer-events="none" font-family="sans-serif" dy="1.5625" font-size="25" fill="#2A2C34"/><text text-anchor="middle" pointer-events="none" font-family="sans-serif" dy="1.5625" font-size="25" fill="#2A2C34"/><text text-anchor="middle" pointer-events="none" font-family="sans-serif" dy="1.5625" font-size="25" fill="#2A2C34"/><text text-anchor="middle" pointer-events="none" x="0" y="-5" font-size="10px" fill="#2A2C34" font-family="sans-serif"> The</text><text text-anchor="middle" pointer-events="none" x="0" y="5" font-size="10px" fill="#2A2C34" font-family="sans-serif"> Matrix</text><text text-anchor="middle" pointer-events="none" x="0" y="15" font-size="10px" fill="#2A2C34" font-family="sans-serif"> Reloa…</text></g><g class="node" transform="translate(-17.09104526726831,346.82569543505696)"><circle class="outline" cx="0" cy="0" r="25" fill="#F79767" stroke="#f36924" stroke-width="2px"/><text text-anchor="middle" pointer-events="none" font-family="sans-serif" dy="1.5625" font-size="25" fill="#FFFFFF"/><text text-anchor="middle" pointer-events="none" font-family="sans-serif" dy="1.5625" font-size="25" fill="#FFFFFF"/><text text-anchor="middle" pointer-events="none" x="0" y="0" font-size="10px" fill="#FFFFFF" font-family="sans-serif"> Emil</text><text text-anchor="middle" pointer-events="none" x="0" y="10" font-size="10px" fill="#FFFFFF" font-family="sans-serif"> Eifrem</text></g><g class="node" transform="translate(-41.78497097109743,228.3960843491913)"><circle class="outline" cx="0" cy="0" r="25" fill="#57C7E3" stroke="#23b3d7" stroke-width="2px"/><text text-anchor="middle" pointer-events="none" font-family="sans-serif" dy="1.5625" font-size="25" fill="#2A2C34"/><text text-anchor="middle" pointer-events="none" font-family="sans-serif" dy="1.5625" font-size="25" fill="#2A2C34"/><text text-anchor="middle" pointer-events="none" x="0" y="0" font-size="10px" fill="#2A2C34" font-family="sans-serif"> The</text><text text-anchor="middle" pointer-events="none" x="0" y="10" font-size="10px" fill="#2A2C34" font-family="sans-serif"> Matrix</text></g></g></svg>