<svg xmlns="http://www.w3.org/2000/svg" width="377.5491027832031" height="376.98150634765625" viewBox="-57.55249786376953 -119.27753448486328 377.5491027832031 376.98150634765625"><title>Neo4j Graph Visualization</title><desc>Created using Neo4j (http://www.neo4j.com/)</desc><g class="layer relationships"><g class="relationship" transform="translate(290.9965990330206 171.39832525833563) rotate(189.35804439158858)"><path class="outline" fill="#A5ABB6" stroke="none" d="M 25 0.5 L 29.83073063603186 0.5 L 29.83073063603186 -0.5 L 25 -0.5 Z M 76.83073063603186 0.5 L 81.66146127206372 0.5 L 81.66146127206372 3.5 L 88.66146127206372 0 L 81.66146127206372 -3.5 L 81.66146127206372 -0.5 L 76.83073063603186 -0.5 Z"/><text text-anchor="middle" pointer-events="none" font-size="8px" fill="#000000" x="53.33073063603186" y="3" transform="rotate(180 53.33073063603186 0)" font-family="sans-serif">DIRECTED</text></g><g class="relationship" transform="translate(45.83642052776272 98.86444881343202) rotate(382.1154573301996)"><path class="outline" fill="#A5ABB6" stroke="none" d="M 25 0.5 L 45.78728987394025 0.5 L 45.78728987394025 -0.5 L 25 -0.5 Z M 90.78728987394025 0.5 L 111.5745797478805 0.5 L 111.5745797478805 3.5 L 118.5745797478805 0 L 111.5745797478805 -3.5 L 111.5745797478805 -0.5 L 90.78728987394025 -0.5 Z"/><text text-anchor="middle" pointer-events="none" font-size="8px" fill="#000000" x="68.28728987394025" y="3" font-family="sans-serif">ACTED_IN</text></g><g class="relationship" transform="translate(45.83642052776272 98.86444881343202) rotate(307.6047806495651)"><path class="outline" fill="#A5ABB6" stroke="none" d="M 25 0.5 L 27.513086417172076 0.5 L 27.513086417172076 -0.5 L 25 -0.5 Z M 72.51308641717208 0.5 L 75.02617283434415 0.5 L 75.02617283434415 3.5 L 82.02617283434415 0 L 75.02617283434415 -3.5 L 75.02617283434415 -0.5 L 72.51308641717208 -0.5 Z"/><text text-anchor="middle" pointer-events="none" font-size="8px" fill="#000000" x="50.013086417172076" y="3" font-family="sans-serif">ACTED_IN</text></g><g class="relationship" transform="translate(45.83642052776272 98.86444881343202) rotate(232.096309771956)"><path class="outline" fill="#A5ABB6" stroke="none" d="M 25 0.5 L 25.66636844478414 0.5 L 25.66636844478414 -0.5 L 25 -0.5 Z M 44.66636844478414 0.5 L 45.33273688956828 0.5 L 45.33273688956828 3.5 L 52.33273688956828 0 L 45.33273688956828 -3.5 L 45.33273688956828 -0.5 L 44.66636844478414 -0.5 Z"/><text text-anchor="middle" pointer-events="none" font-size="8px" fill="#000000" x="35.16636844478414" y="3" transform="rotate(180 35.16636844478414 0)" font-family="sans-serif">A…</text></g><g class="relationship" transform="translate(45.83642052776272 98.86444881343202) rotate(504.27533286975864)"><path class="outline" fill="#A5ABB6" stroke="none" d="M 25 0.5 L 27.315449165426216 0.5 L 27.315449165426216 -0.5 L 25 -0.5 Z M 57.315449165426216 0.5 L 59.63089833085243 0.5 L 59.63089833085243 3.5 L 66.63089833085243 0 L 59.63089833085243 -3.5 L 59.63089833085243 -0.5 L 57.315449165426216 -0.5 Z"/><text text-anchor="middle" pointer-events="none" font-size="8px" fill="#000000" x="42.315449165426216" y="3" transform="rotate(180 42.315449165426216 0)" font-family="sans-serif">ACT…</text></g><g class="relationship" transform="translate(45.83642052776272 98.86444881343202) rotate(439.5932259067207)"><path class="outline" fill="#A5ABB6" stroke="none" d="M 25 0.5 L 40.005557869170545 0.5 L 40.005557869170545 -0.5 L 25 -0.5 Z M 85.00555786917054 0.5 L 100.01111573834109 0.5 L 100.01111573834109 3.5 L 107.01111573834109 0 L 100.01111573834109 -3.5 L 100.01111573834109 -0.5 L 85.00555786917054 -0.5 Z"/><text text-anchor="middle" pointer-events="none" font-size="8px" fill="#000000" x="62.505557869170545" y="3" font-family="sans-serif">ACTED_IN</text></g><g class="relationship" transform="translate(73.10033286381612 152.15909491510567) rotate(285.40375600875)"><path class="outline" fill="#A5ABB6" stroke="none" d="M 24.018736134675446,6.953439040707552 L 24.277555179777966,5.987513214418485 A 177.5162967170435 177.5162967170435 0 0 0 42.26792630322568,9.82138307904529 L 42.11045215690799,10.808906189276911 A 178.5162967170435 178.5162967170435 0 0 1 24.018736134675446,6.953439040707552 Z M 94.06751898738924,11.436490676420448 L 93.93394370132465,10.44545200767297 A 177.5162967170435 177.5162967170435 0 0 0 112.01167039268,7.047245278981046 L 111.30543354154054,4.131558479941646 L 118.93264573229517,5.8853070928288655 L 112.95331952753261,10.934827677700245 L 112.24708267639315,8.019140878660846 A 178.5162967170435 178.5162967170435 0 0 1 94.06751898738924,11.436490676420448"/><text text-anchor="middle" pointer-events="none" font-size="8px" fill="#000000" x="68.07206844873805" y="15.52324948155777" font-family="sans-serif">PRODUCED</text></g><g class="relationship" transform="translate(73.10033286381612 152.15909491510567) rotate(285.40375600875)"><path class="outline" fill="#A5ABB6" stroke="none" d="M 24.018736134675446,-6.953439040707552 L 24.277555179777966,-5.987513214418485 A 177.5162967170435 177.5162967170435 0 0 1 50.66697669335921,-10.955848533077784 L 50.55681679674966,-11.949762411227681 A 178.5162967170435 178.5162967170435 0 0 0 24.018736134675446,-6.953439040707552 Z M 85.59606206848991,-12.37299813478208 L 85.5099415922925,-11.376713404607244 A 177.5162967170435 177.5162967170435 0 0 1 112.01167039268,-7.047245278981046 L 111.30543354154054,-4.131558479941646 L 118.93264573229517,-5.8853070928288655 L 112.95331952753261,-10.934827677700245 L 112.24708267639315,-8.019140878660846 A 178.5162967170435 178.5162967170435 0 0 0 85.59606206848991,-12.37299813478208"/><text text-anchor="middle" pointer-events="none" font-size="8px" fill="#000000" x="68.07206844873797" y="-9.52324948155777" font-family="sans-serif">WROTE</text></g><g class="relationship" transform="translate(73.10033286381612 152.15909491510567) rotate(360.41040871739847)"><path class="outline" fill="#A5ABB6" stroke="none" d="M 25 0.5 L 25.875090987092612 0.5 L 25.875090987092612 -0.5 L 25 -0.5 Z M 72.87509098709262 0.5 L 73.75018197418522 0.5 L 73.75018197418522 3.5 L 80.75018197418522 0 L 73.75018197418522 -3.5 L 73.75018197418522 -0.5 L 72.87509098709262 -0.5 Z"/><text text-anchor="middle" pointer-events="none" font-size="8px" fill="#000000" x="49.37509098709261" y="3" font-family="sans-serif">DIRECTED</text></g><g class="relationship" transform="translate(73.10033286381612 152.15909491510567) rotate(236.8114201487454)"><path class="outline" fill="#A5ABB6" stroke="none" d="M 25 0.5 L 41.298032464086134 0.5 L 41.298032464086134 -0.5 L 25 -0.5 Z M 88.29803246408613 0.5 L 104.59606492817227 0.5 L 104.59606492817227 3.5 L 111.59606492817227 0 L 104.59606492817227 -3.5 L 104.59606492817227 -0.5 L 88.29803246408613 -0.5 Z"/><text text-anchor="middle" pointer-events="none" font-size="8px" fill="#000000" x="64.79803246408613" y="3" transform="rotate(180 64.79803246408613 0)" font-family="sans-serif">DIRECTED</text></g><g class="relationship" transform="translate(73.10033286381612 152.15909491510567) rotate(539.8828808279524)"><path class="outline" fill="#A5ABB6" stroke="none" d="M 25 0.5 L 25.326520341575872 0.5 L 25.326520341575872 -0.5 L 25 -0.5 Z M 69.32652034157587 0.5 L 69.65304068315174 0.5 L 69.65304068315174 3.5 L 76.65304068315174 0 L 69.65304068315174 -3.5 L 69.65304068315174 -0.5 L 69.32652034157587 -0.5 Z"/><text text-anchor="middle" pointer-events="none" font-size="8px" fill="#000000" x="47.32652034157587" y="3" transform="rotate(180 47.32652034157587 0)" font-family="sans-serif">DIRECT…</text></g><g class="relationship" transform="translate(73.10033286381612 152.15909491510567) rotate(452.5567807810898)"><path class="outline" fill="#A5ABB6" stroke="none" d="M 25 0.5 L 34.81058943645437 0.5 L 34.81058943645437 -0.5 L 25 -0.5 Z M 34.81058943645437 0.5 L 44.62117887290874 0.5 L 44.62117887290874 3.5 L 51.62117887290874 0 L 44.62117887290874 -3.5 L 44.62117887290874 -0.5 L 34.81058943645437 -0.5 Z"/><text text-anchor="middle" pointer-events="none" font-size="8px" fill="#000000" x="34.81058943645437" y="3" transform="rotate(180 34.81058943645437 0)" font-family="sans-serif"/></g><g class="relationship" transform="translate(105.69627836162478 101.92402109732247) rotate(273.54911472799256)"><path class="outline" fill="#A5ABB6" stroke="none" d="M 24.018736134675446,6.953439040707552 L 24.277555179777966,5.987513214418485 A 67.48039490868337 67.48039490868337 0 0 0 25.236240135828673,6.236864939887155 L 24.991627957140437,7.206485939060229 A 68.48039490868337 68.48039490868337 0 0 1 24.018736134675446,6.953439040707552 Z M 55.944107154651974,7.798146130053098 L 55.73672896093092,6.819885283055228 A 67.48039490868337 67.48039490868337 0 0 0 56.70424288145582,6.607353070102271 L 56.03909518862513,3.682019149552001 L 63.640879978211565,5.542897440255716 L 57.59110647189673,10.507798297502632 L 56.92595877906604,7.582464376952362 A 68.48039490868337 68.48039490868337 0 0 1 55.944107154651974,7.798146130053098"/><text text-anchor="middle" pointer-events="none" font-size="8px" fill="#000000" x="40.44355084219857" y="11.774435718010267" font-family="sans-serif">PRO…</text></g><g class="relationship" transform="translate(105.69627836162478 101.92402109732247) rotate(273.54911472799256)"><path class="outline" fill="#A5ABB6" stroke="none" d="M 24.018736134675446,-6.953439040707552 L 24.277555179777966,-5.987513214418485 A 67.48039490868337 67.48039490868337 0 0 1 27.168084311448755,-6.694106336601351 L 26.952100361422104,-7.670503250428354 A 68.48039490868337 68.48039490868337 0 0 0 24.018736134675446,-6.953439040707552 Z M 53.96733388287649,-8.18690253860899 L 53.78882195481309,-7.202964790812359 A 67.48039490868337 67.48039490868337 0 0 1 56.70424288145582,-6.607353070102271 L 56.03909518862513,-3.682019149552001 L 63.640879978211565,-5.542897440255716 L 57.59110647189673,-10.507798297502632 L 56.92595877906604,-7.582464376952362 A 68.48039490868337 68.48039490868337 0 0 0 53.96733388287649,-8.18690253860899"/><text text-anchor="middle" pointer-events="none" font-size="8px" fill="#000000" x="40.44355084219857" y="-5.774435718010267" font-family="sans-serif">WR…</text></g><g class="relationship" transform="translate(105.69627836162478 101.92402109732247) rotate(394.8796292436817)"><path class="outline" fill="#A5ABB6" stroke="none" d="M 25 0.5 L 27.08527216463429 0.5 L 27.08527216463429 -0.5 L 25 -0.5 Z M 55.08527216463429 0.5 L 57.17054432926858 0.5 L 57.17054432926858 3.5 L 64.17054432926858 0 L 57.17054432926858 -3.5 L 57.17054432926858 -0.5 L 55.08527216463429 -0.5 Z"/><text text-anchor="middle" pointer-events="none" font-size="8px" fill="#000000" x="41.08527216463429" y="3" font-family="sans-serif">DIR…</text></g><g class="relationship" transform="translate(105.69627836162478 101.92402109732247) rotate(210.82923906131828)"><path class="outline" fill="#A5ABB6" stroke="none" d="M 25 0.5 L 35.517953715000694 0.5 L 35.517953715000694 -0.5 L 25 -0.5 Z M 82.51795371500069 0.5 L 93.03590743000139 0.5 L 93.03590743000139 3.5 L 100.03590743000139 0 L 93.03590743000139 -3.5 L 93.03590743000139 -0.5 L 82.51795371500069 -0.5 Z"/><text text-anchor="middle" pointer-events="none" font-size="8px" fill="#000000" x="59.017953715000694" y="3" transform="rotate(180 59.017953715000694 0)" font-family="sans-serif">DIRECTED</text></g><g class="relationship" transform="translate(105.69627836162478 101.92402109732247) rotate(519.4067062194798)"><path class="outline" fill="#A5ABB6" stroke="none" d="M 25 0.5 L 44.706373177312685 0.5 L 44.706373177312685 -0.5 L 25 -0.5 Z M 91.70637317731268 0.5 L 111.41274635462537 0.5 L 111.41274635462537 3.5 L 118.41274635462537 0 L 111.41274635462537 -3.5 L 111.41274635462537 -0.5 L 91.70637317731268 -0.5 Z"/><text text-anchor="middle" pointer-events="none" font-size="8px" fill="#000000" x="68.20637317731268" y="3" transform="rotate(180 68.20637317731268 0)" font-family="sans-serif">DIRECTED</text></g><g class="relationship" transform="translate(105.69627836162478 101.92402109732247) rotate(465.85808417017046)"><path class="outline" fill="#A5ABB6" stroke="none" d="M 25 0.5 L 38.89796793206503 0.5 L 38.89796793206503 -0.5 L 25 -0.5 Z M 85.89796793206503 0.5 L 99.79593586413006 0.5 L 99.79593586413006 3.5 L 106.79593586413006 0 L 99.79593586413006 -3.5 L 99.79593586413006 -0.5 L 85.89796793206503 -0.5 Z"/><text text-anchor="middle" pointer-events="none" font-size="8px" fill="#000000" x="62.39796793206503" y="3" transform="rotate(180 62.39796793206503 0)" font-family="sans-serif">DIRECTED</text></g><g class="relationship" transform="translate(156.39899409631352 -90.27753707937984) rotate(473.4448348705943)"><path class="outline" fill="#A5ABB6" stroke="none" d="M 25 0.5 L 29.87091278146157 0.5 L 29.87091278146157 -0.5 L 25 -0.5 Z M 76.87091278146157 0.5 L 81.74182556292314 0.5 L 81.74182556292314 3.5 L 88.74182556292314 0 L 81.74182556292314 -3.5 L 81.74182556292314 -0.5 L 76.87091278146157 -0.5 Z"/><text text-anchor="middle" pointer-events="none" font-size="8px" fill="#000000" x="53.37091278146157" y="3" transform="rotate(180 53.37091278146157 0)" font-family="sans-serif">DIRECTED</text></g></g><g class="layer nodes"><g class="node" transform="translate(290.9965990330206,171.39832525833563)"><circle class="outline" cx="0" cy="0" r="25" fill="#F79767" stroke="#f36924" stroke-width="2px"/><text text-anchor="middle" pointer-events="none" font-family="sans-serif" dy="1.5625" font-size="25" fill="#FFFFFF"/><text text-anchor="middle" pointer-events="none" font-family="sans-serif" dy="1.5625" font-size="25" fill="#FFFFFF"/><text text-anchor="middle" pointer-events="none" x="0" y="0" font-size="10px" fill="#FFFFFF" font-family="sans-serif"> Tom</text><text text-anchor="middle" pointer-events="none" x="0" y="10" font-size="10px" fill="#FFFFFF" font-family="sans-serif"> Tykwer</text></g><g class="node" transform="translate(45.83642052776272,98.86444881343202)"><circle class="outline" cx="0" cy="0" r="25" fill="#F79767" stroke="#f36924" stroke-width="2px"/><text text-anchor="middle" pointer-events="none" font-family="sans-serif" dy="1.5625" font-size="25" fill="#FFFFFF"/><text text-anchor="middle" pointer-events="none" font-family="sans-serif" dy="1.5625" font-size="25" fill="#FFFFFF"/><text text-anchor="middle" pointer-events="none" x="0" y="0" font-size="10px" fill="#FFFFFF" font-family="sans-serif"> Hugo</text><text text-anchor="middle" pointer-events="none" x="0" y="10" font-size="10px" fill="#FFFFFF" font-family="sans-serif"> Weaving</text></g><g class="node" transform="translate(178.8478019169229,152.91657523532106)"><circle class="outline" cx="0" cy="0" r="25" fill="#57C7E3" stroke="#23b3d7" stroke-width="2px"/><text text-anchor="middle" pointer-events="none" font-family="sans-serif" dy="1.5625" font-size="25" fill="#2A2C34"/><text text-anchor="middle" pointer-events="none" font-family="sans-serif" dy="1.5625" font-size="25" fill="#2A2C34"/><text text-anchor="middle" pointer-events="none" x="0" y="0" font-size="10px" fill="#2A2C34" font-family="sans-serif"> Cloud</text><text text-anchor="middle" pointer-events="none" x="0" y="10" font-size="10px" fill="#2A2C34" font-family="sans-serif"> Atlas</text></g><g class="node" transform="translate(73.10033286381612,152.15909491510567)"><circle class="outline" cx="0" cy="0" r="25" fill="#F79767" stroke="#f36924" stroke-width="2px"/><text text-anchor="middle" pointer-events="none" font-family="sans-serif" dy="1.5625" font-size="25" fill="#FFFFFF"/><text text-anchor="middle" pointer-events="none" font-family="sans-serif" dy="1.5625" font-size="25" fill="#FFFFFF"/><text text-anchor="middle" pointer-events="none" x="0" y="0" font-size="10px" fill="#FFFFFF" font-family="sans-serif"> Lana</text><text text-anchor="middle" pointer-events="none" x="0" y="10" font-size="10px" fill="#FFFFFF" font-family="sans-serif"> Wacho…</text></g><g class="node" transform="translate(105.69627836162478,101.92402109732247)"><circle class="outline" cx="0" cy="0" r="25" fill="#F79767" stroke="#f36924" stroke-width="2px"/><text text-anchor="middle" pointer-events="none" font-family="sans-serif" dy="1.5625" font-size="25" fill="#FFFFFF"/><text text-anchor="middle" pointer-events="none" font-family="sans-serif" dy="1.5625" font-size="25" fill="#FFFFFF"/><text text-anchor="middle" pointer-events="none" x="0" y="0" font-size="10px" fill="#FFFFFF" font-family="sans-serif"> Lilly</text><text text-anchor="middle" pointer-events="none" x="0" y="10" font-size="10px" fill="#FFFFFF" font-family="sans-serif"> Wacho…</text></g><g class="node" transform="translate(156.39899409631352,-90.27753707937984)"><circle class="outline" cx="0" cy="0" r="25" fill="#F79767" stroke="#f36924" stroke-width="2px"/><text text-anchor="middle" pointer-events="none" font-family="sans-serif" dy="1.5625" font-size="25" fill="#FFFFFF"/><text text-anchor="middle" pointer-events="none" font-family="sans-serif" dy="1.5625" font-size="25" fill="#FFFFFF"/><text text-anchor="middle" pointer-events="none" x="0" y="0" font-size="10px" fill="#FFFFFF" font-family="sans-serif"> James</text><text text-anchor="middle" pointer-events="none" x="0" y="10" font-size="10px" fill="#FFFFFF" font-family="sans-serif"> Marshall</text></g><g class="node" transform="translate(111.14499725854212,14.074169435623602)"><circle class="outline" cx="0" cy="0" r="25" fill="#57C7E3" stroke="#23b3d7" stroke-width="2px"/><text text-anchor="middle" pointer-events="none" font-family="sans-serif" dy="1.5625" font-size="25" fill="#2A2C34"/><text text-anchor="middle" pointer-events="none" font-family="sans-serif" dy="1.5625" font-size="25" fill="#2A2C34"/><text text-anchor="middle" pointer-events="none" x="0" y="0" font-size="10px" fill="#2A2C34" font-family="sans-serif"> V for</text><text text-anchor="middle" pointer-events="none" x="0" y="10" font-size="10px" fill="#2A2C34" font-family="sans-serif"> Vendetta</text></g><g class="node" transform="translate(-1.6718653515148882,37.845476619170775)"><circle class="outline" cx="0" cy="0" r="25" fill="#57C7E3" stroke="#23b3d7" stroke-width="2px"/><text text-anchor="middle" pointer-events="none" font-family="sans-serif" dy="1.5625" font-size="25" fill="#2A2C34"/><text text-anchor="middle" pointer-events="none" font-family="sans-serif" dy="1.5625" font-size="25" fill="#2A2C34"/><text text-anchor="middle" pointer-events="none" font-family="sans-serif" dy="1.5625" font-size="25" fill="#2A2C34"/><text text-anchor="middle" pointer-events="none" x="0" y="-5" font-size="10px" fill="#2A2C34" font-family="sans-serif"> The</text><text text-anchor="middle" pointer-events="none" x="0" y="5" font-size="10px" fill="#2A2C34" font-family="sans-serif"> Matrix</text><text text-anchor="middle" pointer-events="none" x="0" y="15" font-size="10px" fill="#2A2C34" font-family="sans-serif"> Revol…</text></g><g class="node" transform="translate(-28.55249544553003,152.36688529288037)"><circle class="outline" cx="0" cy="0" r="25" fill="#57C7E3" stroke="#23b3d7" stroke-width="2px"/><text text-anchor="middle" pointer-events="none" font-family="sans-serif" dy="1.5625" font-size="25" fill="#2A2C34"/><text text-anchor="middle" pointer-events="none" font-family="sans-serif" dy="1.5625" font-size="25" fill="#2A2C34"/><text text-anchor="middle" pointer-events="none" font-family="sans-serif" dy="1.5625" font-size="25" fill="#2A2C34"/><text text-anchor="middle" pointer-events="none" x="0" y="-5" font-size="10px" fill="#2A2C34" font-family="sans-serif"> The</text><text text-anchor="middle" pointer-events="none" x="0" y="5" font-size="10px" fill="#2A2C34" font-family="sans-serif"> Matrix</text><text text-anchor="middle" pointer-events="none" x="0" y="15" font-size="10px" fill="#2A2C34" font-family="sans-serif"> Reloa…</text></g><g class="node" transform="translate(69.68230543097755,228.70399768689472)"><circle class="outline" cx="0" cy="0" r="25" fill="#57C7E3" stroke="#23b3d7" stroke-width="2px"/><text text-anchor="middle" pointer-events="none" font-family="sans-serif" dy="1.5625" font-size="25" fill="#2A2C34"/><text text-anchor="middle" pointer-events="none" font-family="sans-serif" dy="1.5625" font-size="25" fill="#2A2C34"/><text text-anchor="middle" pointer-events="none" x="0" y="0" font-size="10px" fill="#2A2C34" font-family="sans-serif"> The</text><text text-anchor="middle" pointer-events="none" x="0" y="10" font-size="10px" fill="#2A2C34" font-family="sans-serif"> Matrix</text></g></g></svg>