<svg xmlns="http://www.w3.org/2000/svg" width="158.956787109375" height="242.6729278564453" viewBox="1.3027057647705078 -21.17020034790039 158.956787109375 242.6729278564453"><title>Neo4j Graph Visualization</title><desc>Created using Neo4j (http://www.neo4j.com/)</desc><g class="layer relationships"><g class="relationship" transform="translate(131.2594937682834 7.829800324685011) rotate(519.0570982986294)"><path class="outline" fill="#A5ABB6" stroke="none" d="M 21.40063509461097,12.933012701892217 L 21.90063509461097,12.06698729810778 A 59.92173915599769 59.92173915599769 0 0 0 22.136353236030402,12.20236728749029 L 21.640287002719077,13.070651971317147 A 60.92173915599769 60.92173915599769 0 0 1 21.40063509461097,12.933012701892217 Z M 78.7659750510312,14.832252620716915 L 78.32435157226725,13.935052139773866 A 59.92173915599769 59.92173915599769 0 0 0 78.5679634011647,13.814453381319762 L 77.23089646495504,11.12888975181945 L 85.05712302603372,11.14222446841392 L 80.35071931611094,17.395204887320176 L 79.01365237990127,14.709641257819865 A 60.92173915599769 60.92173915599769 0 0 1 78.7659750510312,14.832252620716915"/><text text-anchor="middle" pointer-events="none" font-size="8px" fill="#000000" x="49.999148065244874" y="23.566269926353314" transform="rotate(180 49.999148065244874 20.566269926353314)" font-family="sans-serif">PublicTransp…</text></g><g class="relationship" transform="translate(30.92026219160757 46.23173888392581) rotate(450.33159290306287)"><path class="outline" fill="#A5ABB6" stroke="none" d="M 25 0.5 L 40.85396032443396 0.5 L 40.85396032443396 -0.5 L 25 -0.5 Z M 58.85396032443396 0.5 L 74.70792064886793 0.5 L 74.70792064886793 3.5 L 81.70792064886793 0 L 74.70792064886793 -3.5 L 74.70792064886793 -0.5 L 58.85396032443396 -0.5 Z"/><text text-anchor="middle" pointer-events="none" font-size="8px" fill="#000000" x="49.85396032443396" y="3" transform="rotate(180 49.85396032443396 0)" font-family="sans-serif">trek</text></g><g class="relationship" transform="translate(30.30270550651435 152.9378725077517) rotate(381.61094118600795)"><path class="outline" fill="#A5ABB6" stroke="none" d="M 25 0.5 L 41.212513860864036 0.5 L 41.212513860864036 -0.5 L 25 -0.5 Z M 59.212513860864036 0.5 L 75.42502772172807 0.5 L 75.42502772172807 3.5 L 82.42502772172807 0 L 75.42502772172807 -3.5 L 75.42502772172807 -0.5 L 59.212513860864036 -0.5 Z"/><text text-anchor="middle" pointer-events="none" font-size="8px" fill="#000000" x="50.212513860864036" y="3" font-family="sans-serif">trek</text></g><g class="relationship" transform="translate(131.2594937682834 7.829800324685011) rotate(519.0570982986294)"><path class="outline" fill="#A5ABB6" stroke="none" d="M 25 0.5 L 41.21840996926817 0.5 L 41.21840996926817 -0.5 L 25 -0.5 Z M 59.21840996926817 0.5 L 75.43681993853635 0.5 L 75.43681993853635 3.5 L 82.43681993853635 0 L 75.43681993853635 -3.5 L 75.43681993853635 -0.5 L 59.21840996926817 -0.5 Z"/><text text-anchor="middle" pointer-events="none" font-size="8px" fill="#000000" x="50.21840996926817" y="3" transform="rotate(180 50.21840996926817 0)" font-family="sans-serif">trek</text></g><g class="relationship" transform="translate(131.2594937682834 7.829800324685011) rotate(519.0570982986294)"><path class="outline" fill="#A5ABB6" stroke="none" d="M 21.40063509461097,-12.933012701892217 L 21.90063509461097,-12.06698729810778 A 59.92173915599769 59.92173915599769 0 0 1 39.68652095567472,-18.845077126248547 L 39.48333954124282,-19.824218236012328 A 60.92173915599769 60.92173915599769 0 0 0 21.40063509461097,-12.933012701892217 Z M 60.54069806115468,-20.47356982740058 L 60.39823342523349,-19.483769934739527 A 59.92173915599769 59.92173915599769 0 0 1 78.5679634011647,-13.814453381319762 L 77.23089646495504,-11.12888975181945 L 85.05712302603372,-11.14222446841392 L 80.35071931611094,-17.395204887320176 L 79.01365237990127,-14.709641257819865 A 60.92173915599769 60.92173915599769 0 0 0 60.54069806115468,-20.47356982740058"/><text text-anchor="middle" pointer-events="none" font-size="8px" fill="#000000" x="49.99914806524487" y="-17.566269926353314" transform="rotate(180 49.99914806524487 -20.566269926353314)" font-family="sans-serif">road</text></g></g><g class="layer nodes"><g class="node" transform="translate(131.2594937682834,7.829800324685011)"><circle class="outline" cx="0" cy="0" r="25" fill="#F16667" stroke="#eb2728" stroke-width="2px"/><text text-anchor="middle" pointer-events="none" font-family="sans-serif" dy="1.5625" font-size="25" fill="#FFFFFF"/><text text-anchor="middle" pointer-events="none" x="0" y="5" font-size="10px" fill="#FFFFFF" font-family="sans-serif"> Darjeeli…</text></g><g class="node" transform="translate(130.1764168039657,192.50273536215045)"><circle class="outline" cx="0" cy="0" r="25" fill="#D9C8AE" stroke="#c0a378" stroke-width="2px"/><text text-anchor="middle" pointer-events="none" font-family="sans-serif" dy="1.5625" font-size="25" fill="#2A2C34"/><text text-anchor="middle" pointer-events="none" x="0" y="5" font-size="10px" fill="#2A2C34" font-family="sans-serif"> Sandak…</text></g><g class="node" transform="translate(30.92026219160757,46.23173888392581)"><circle class="outline" cx="0" cy="0" r="25" fill="#F16667" stroke="#eb2728" stroke-width="2px"/><text text-anchor="middle" pointer-events="none" font-family="sans-serif" dy="1.5625" font-size="25" fill="#FFFFFF"/><text text-anchor="middle" pointer-events="none" x="0" y="5" font-size="10px" fill="#FFFFFF" font-family="sans-serif"> Rimbik</text></g><g class="node" transform="translate(30.30270550651435,152.9378725077517)"><circle class="outline" cx="0" cy="0" r="25" fill="#8DCC93" stroke="#5db665" stroke-width="2px"/><text text-anchor="middle" pointer-events="none" font-family="sans-serif" dy="1.5625" font-size="25" fill="#2A2C34"/><text text-anchor="middle" pointer-events="none" x="0" y="5" font-size="10px" fill="#2A2C34" font-family="sans-serif"> BhikeB…</text></g></g></svg>