<svg xmlns="http://www.w3.org/2000/svg" width="158.85211181640625" height="242.6736602783203" viewBox="1.3408889770507812 -21.192691802978516 158.85211181640625 242.6736602783203"><title>Neo4j Graph Visualization</title><desc>Created using Neo4j (http://www.neo4j.com/)</desc><g class="layer relationships"><g class="relationship" transform="translate(131.19298940284827 7.807308413439089) rotate(519.0157540913676)"><path class="outline" fill="#A5ABB6" stroke="none" d="M 21.40063509461097,12.933012701892217 L 21.90063509461097,12.06698729810778 A 59.92173845119076 59.92173845119076 0 0 0 22.136352927322637,12.202367111111784 L 21.640286688905732,13.070651792021742 A 60.92173845119076 60.92173845119076 0 0 1 21.40063509461097,12.933012701892217 Z M 78.76597468855265,14.832252450494451 L 78.3243512048449,13.935051971984862 A 59.92173845119076 59.92173845119076 0 0 0 78.56796271479804,13.814453370642939 L 77.2308957795816,11.128889740648129 L 85.05712234065534,11.142224460137037 L 80.35071862841997,17.395204877302685 L 79.01365169320353,14.709641247307877 A 60.92173845119076 60.92173845119076 0 0 1 78.76597468855265,14.832252450494451"/><text text-anchor="middle" pointer-events="none" font-size="8px" fill="#000000" x="49.999147723397606" y="23.56626983191758" transform="rotate(180 49.999147723397606 20.56626983191758)" font-family="sans-serif">PublicTransp…</text></g><g class="relationship" transform="translate(30.881495135464966 46.28164076587778) rotate(450.29027412806516)"><path class="outline" fill="#A5ABB6" stroke="none" d="M 25 0.5 L 40.85396037834208 0.5 L 40.85396037834208 -0.5 L 25 -0.5 Z M 58.85396037834208 0.5 L 74.70792075668416 0.5 L 74.70792075668416 3.5 L 81.70792075668416 0 L 74.70792075668416 -3.5 L 74.70792075668416 -0.5 L 58.85396037834208 -0.5 Z"/><text text-anchor="middle" pointer-events="none" font-size="8px" fill="#000000" x="49.85396037834208" y="3" transform="rotate(180 49.85396037834208 0)" font-family="sans-serif">trek</text></g><g class="relationship" transform="translate(30.340889589718447 152.98819210111068) rotate(381.5695954748565)"><path class="outline" fill="#A5ABB6" stroke="none" d="M 25 0.5 L 41.212514312989086 0.5 L 41.212514312989086 -0.5 L 25 -0.5 Z M 59.212514312989086 0.5 L 75.42502862597817 0.5 L 75.42502862597817 3.5 L 82.42502862597817 0 L 75.42502862597817 -3.5 L 75.42502862597817 -0.5 L 59.212514312989086 -0.5 Z"/><text text-anchor="middle" pointer-events="none" font-size="8px" fill="#000000" x="50.212514312989086" y="3" font-family="sans-serif">trek</text></g><g class="relationship" transform="translate(131.19298940284827 7.807308413439089) rotate(519.0157540913676)"><path class="outline" fill="#A5ABB6" stroke="none" d="M 25 0.5 L 41.21840962863938 0.5 L 41.21840962863938 -0.5 L 25 -0.5 Z M 59.21840962863938 0.5 L 75.43681925727876 0.5 L 75.43681925727876 3.5 L 82.43681925727876 0 L 75.43681925727876 -3.5 L 75.43681925727876 -0.5 L 59.21840962863938 -0.5 Z"/><text text-anchor="middle" pointer-events="none" font-size="8px" fill="#000000" x="50.21840962863938" y="3" transform="rotate(180 50.21840962863938 0)" font-family="sans-serif">trek</text></g><g class="relationship" transform="translate(131.19298940284827 7.807308413439089) rotate(519.0157540913676)"><path class="outline" fill="#A5ABB6" stroke="none" d="M 21.40063509461097,-12.933012701892217 L 21.90063509461097,-12.06698729810778 A 59.92173845119076 59.92173845119076 0 0 1 39.686520616692306,-18.845077019592644 L 39.483339200094534,-19.824218128906992 A 60.92173845119076 60.92173845119076 0 0 0 21.40063509461097,-12.933012701892217 Z M 60.540697719424685,-20.473569724174915 L 60.39823308168012,-19.4837698317763 A 59.92173845119076 59.92173845119076 0 0 1 78.56796271479804,-13.814453370642939 L 77.2308957795816,-11.128889740648129 L 85.05712234065534,-11.142224460137037 L 80.35071862841997,-17.395204877302685 L 79.01365169320353,-14.709641247307877 A 60.92173845119076 60.92173845119076 0 0 0 60.540697719424685,-20.473569724174915"/><text text-anchor="middle" pointer-events="none" font-size="8px" fill="#000000" x="49.9991477233976" y="-17.56626983191758" transform="rotate(180 49.9991477233976 -20.56626983191758)" font-family="sans-serif">road</text></g></g><g class="layer nodes"><g class="node" transform="translate(131.19298940284827,7.807308413439089)"><circle class="outline" cx="0" cy="0" r="25" fill="#F16667" stroke="#eb2728" stroke-width="2px"/><text text-anchor="middle" pointer-events="none" font-family="sans-serif" dy="1.5625" font-size="25" fill="#FFFFFF"/><text text-anchor="middle" pointer-events="none" x="0" y="5" font-size="10px" fill="#FFFFFF" font-family="sans-serif"> Darjeeli…</text></g><g class="node" transform="translate(130.2431264703233,192.48097424600076)"><circle class="outline" cx="0" cy="0" r="25" fill="#D9C8AE" stroke="#c0a378" stroke-width="2px"/><text text-anchor="middle" pointer-events="none" font-family="sans-serif" dy="1.5625" font-size="25" fill="#2A2C34"/><text text-anchor="middle" pointer-events="none" x="0" y="5" font-size="10px" fill="#2A2C34" font-family="sans-serif"> Sandak…</text></g><g class="node" transform="translate(30.881495135464966,46.28164076587778)"><circle class="outline" cx="0" cy="0" r="25" fill="#F16667" stroke="#eb2728" stroke-width="2px"/><text text-anchor="middle" pointer-events="none" font-family="sans-serif" dy="1.5625" font-size="25" fill="#FFFFFF"/><text text-anchor="middle" pointer-events="none" x="0" y="5" font-size="10px" fill="#FFFFFF" font-family="sans-serif"> Rimbik</text></g><g class="node" transform="translate(30.340889589718447,152.98819210111068)"><circle class="outline" cx="0" cy="0" r="25" fill="#8DCC93" stroke="#5db665" stroke-width="2px"/><text text-anchor="middle" pointer-events="none" font-family="sans-serif" dy="1.5625" font-size="25" fill="#2A2C34"/><text text-anchor="middle" pointer-events="none" x="0" y="5" font-size="10px" fill="#2A2C34" font-family="sans-serif"> BhikeB…</text></g></g></svg>